# WaveFront *.obj file (generated by Cinema 4D)

mtllib ./Room.mtl

v -0.60000002384186 -0.60000002384186 0.0647729486227
v -0.60000002384186 0.60000002384186 0.0647729486227
v 0.60000002384186 -0.60000002384186 0.0647729486227
v 0.60000002384186 0.60000002384186 0.0647729486227
v 0.60000002384186 0.60000002384186 0.0287329107523
v 0.60000002384186 -0.60000002384186 0.0287329107523
v -0.60000002384186 0.60000002384186 0.0287329107523
v -0.60000002384186 -0.60000002384186 0.0287329107523
v -1 -1 -0.25
v -1 1 -0.25
v 1 -1 -0.25
v 1 1 -0.25
v 0.5 -0.5 0.21999999880791
v 0.5 0.5 0.21999999880791
v -0.5 -0.5 0.21999999880791
v -0.5 0.5 0.21999999880791
v -0.77499997615814 -0.77499997615814 -0.05000000074506
v -0.77499997615814 0.77499997615814 -0.05000000074506
v 0.77499997615814 -0.77499997615814 -0.05000000074506
v 0.77499997615814 0.77499997615814 -0.05000000074506
v -0.85000002384186 -0.85000002384186 -0.18000000715256
v -0.97500002384186 -0.97500002384186 -0.23000000417233
v -0.85000002384186 0.85000002384186 -0.18000000715256
v -0.97500002384186 0.97500002384186 -0.23000000417233
v 0.85000002384186 0.85000002384186 -0.18000000715256
v 0.97500002384186 0.97500002384186 -0.23000000417233
v 0.85000002384186 -0.85000002384186 -0.18000000715256
v 0.97500002384186 -0.97500002384186 -0.23000000417233
v 0.65893137454987 0.6811820268631 -0.05000000074506
v 0.65893137454987 -0.6811820268631 -0.05000000074506
v -0.65893137454987 0.6811820268631 -0.05000000074506
v -0.65893137454987 -0.6811820268631 -0.05000000074506
v -0.64983451366425 -0.67351996898651 0.0287329107523
v -0.64983451366425 0.67351996898651 0.0287329107523
v 0.64983451366425 -0.67351996898651 0.0287329107523
v 0.64983451366425 0.67351996898651 0.0287329107523
v 0.65893137454987 -0.6811820268631 -0.05000000074506
v -0.65893137454987 0.6811820268631 -0.05000000074506
# 38 vertices

vn 0 0 -1
vn -1 0 0
vn 1 0 0
vn 0 -1 0
vn 0 1 0
vn 0.26939135789871 0.26939135789871 -0.92458456754684
vn 0 0.62469536066055 -0.78086858987808
vn -0.26939135789871 0.26939135789871 -0.92458456754684
vn -0.62469536066055 0 -0.78086858987808
vn -0.26939135789871 -0.26939135789871 -0.92458456754684
vn 0 -0.62469536066055 -0.78086858987808
vn 0.26939135789871 -0.26939135789871 -0.92458456754684
vn 0.68490999937057 0 0.72862768173218
vn 0 0 1
vn -0.68490993976593 0 0.72862768173218
vn 0 0.68490993976593 0.72862768173218
vn 0 -0.68490999937057 0.72862768173218
vn 0.86618548631668 0 -0.49972265958786
vn 0.36943060159683 -0.36943060159683 -0.85266762971878
vn 0.36943060159683 0.36943060159683 -0.85266762971878
vn 0 -0.86618548631668 -0.49972265958786
vn -0.36943060159683 -0.36943060159683 -0.85266762971878
vn -0.86618548631668 0 -0.49972265958786
vn -0.36943060159683 0.36943060159683 -0.85266762971878
vn 0 0.86618548631668 -0.49972265958786
vn 0.62469536066055 0 -0.78086858987808
vn 0 0.99529808759689 -0.09685952216387
vn 0 -0.99529808759689 -0.09685952216387
vn 0.99339121580124 0 -0.11477775871754
vn -0.99339121580124 0 -0.11477775871754
# 30 normals

vt 0 1 0
vt 0 0 0
vt 1 0 0
vt 1 1 0
vt 0.27820286154747 0 0
vt 0.27820286154747 1 0
vt 0.72179716825485 1 0
vt 0.72179716825485 0 0
vt 1 0.27820289134979 0
vt 0 0.27820289134979 0
vt 0 0.72179716825485 0
vt 1 0.72179716825485 0
vt 0.8400936126709 0.85157781839371 0
vt 0.89999997615814 0.89999997615814 0
vt 0.09999999403954 0.89999997615814 0
vt 0.15990635752678 0.85157781839371 0
vt 0.8400936126709 0.14842224121094 0
vt 0.15990635752678 0.14842224121094 0
vt 0.09999999403954 0.10000002384186 0
vt 0.89999997615814 0.10000002384186 0
vt 0.03333333134651 0.03333342075348 0
vt 0.96666657924652 0.03333342075348 0
vt 1 1 0
vt 0.96666657924652 0.96666669845581 0
vt 0 1 0
vt 0.03333333134651 0.96666669845581 0
vt 0.06666666269302 0.93333333730698 0
vt 0.06666666269302 0.06666672229767 0
vt 0.93333327770233 0.93333333730698 0
vt 0.93333327770233 0.06666672229767 0
vt 0.03834398835897 0.94542109966278 0
vt 0.96165597438812 0.94542109966278 0
vt 0.96165597438812 0.05457890033722 0
vt 0.03834398835897 0.05457890033722 0
vt 0 0.93942081928253 0
vt 1 0.93942081928253 0
vt 1 0.06057918071747 0
vt 0 0.06057918071747 0
vt 0.93942081928253 1 0
vt 0.93942081928253 0 0
vt 0.06057920306921 0 0
vt 0.06057920306921 1 0
# 42 texture coordinates

o roomcube
usemtl 材质
f 4/4/1 3/3/1 1/2/1 2/1/1
f 4/1/2 5/6/2 6/5/2 3/2/2
f 1/3/3 8/8/3 7/7/3 2/4/3
f 2/2/4 7/10/4 5/9/4 4/3/4
f 3/4/5 6/12/5 8/11/5 1/1/5
f 31/16/1 18/15/1 20/14/1 29/13/1
f 19/20/1 17/19/1 32/18/1 30/17/1
f 20/14/1 19/20/1 30/17/1 29/13/1
f 17/19/1 18/15/1 31/16/1 32/18/1
f 11/2/13 12/1/13 14/4/13 13/3/13
f 13/2/14 14/1/14 16/4/14 15/3/14
f 15/2/15 16/1/15 10/4/15 9/3/15
f 10/2/16 16/1/16 14/4/16 12/3/16
f 15/2/17 9/1/17 11/4/17 13/3/17
f 17/19/18 21/28/20 23/27/19 18/15/18
f 24/26/12 23/27/19 21/28/20 22/21/6
f 18/15/21 23/27/19 25/29/22 20/14/21
f 26/24/10 25/29/22 23/27/19 24/26/12
f 20/14/23 25/29/22 27/30/24 19/20/23
f 28/22/8 27/30/24 25/29/22 26/24/10
f 19/20/25 27/30/24 21/28/20 17/19/25
f 22/21/6 21/28/20 27/30/24 28/22/8
f 34/1/1 36/4/1 5/32/1 7/31/1
f 35/3/1 33/2/1 8/34/1 6/33/1
f 8/34/1 33/2/1 34/1/1 7/31/1
f 36/4/1 35/3/1 6/33/1 5/32/1
f 33/1/27 35/4/27 37/36/27 32/35/27
f 34/2/28 38/38/28 29/37/28 36/3/28
f 33/3/29 32/40/29 38/39/29 34/4/29
f 36/1/30 29/42/30 37/41/30 35/2/30

usemtl 材质.2
f 28/22/8 11/3/7 9/2/7 22/21/6
f 26/24/10 12/23/9 11/3/9 28/22/8
f 24/26/12 10/25/11 12/23/11 26/24/10
f 22/21/6 9/2/26 10/25/26 24/26/12

